<svg width="35" height="30" viewBox="0 0 35 30" fill="none" xmlns="http://www.w3.org/2000/svg">
<path d="M3.93894 0.252075C1.90618 0.252075 0.251953 1.9063 0.251953 3.93906V24.4223C0.251953 27.3588 2.64112 29.7479 5.57759 29.7479H29.3381C32.2746 29.7479 34.6638 27.3588 34.6638 24.4223V10.4937C34.6638 8.60104 33.225 7.05479 31.3865 6.84832V23.603C31.3865 24.2814 30.8359 24.832 30.1575 24.832C29.4791 24.832 28.9285 24.2814 28.9285 23.603V3.93906C28.9285 1.9063 27.2743 0.252075 25.2415 0.252075H3.93894ZM6.39692 7.62604H22.7835C23.4627 7.62604 24.0125 8.17663 24.0125 8.85503C24.0125 9.53344 23.4627 10.084 22.7835 10.084H6.39692C5.7177 10.084 5.16793 9.53344 5.16793 8.85503C5.16793 8.17663 5.7177 7.62604 6.39692 7.62604ZM6.39692 14.1807H12.1322C12.8115 14.1807 13.3612 14.7313 13.3612 15.4097V21.145C13.3612 21.8234 12.8115 22.374 12.1322 22.374H6.39692C5.7177 22.374 5.16793 21.8234 5.16793 21.145V15.4097C5.16793 14.7313 5.7177 14.1807 6.39692 14.1807ZM17.0482 14.1807H22.7835C23.4627 14.1807 24.0125 14.7313 24.0125 15.4097C24.0125 16.0881 23.4627 16.6387 22.7835 16.6387H17.0482C16.369 16.6387 15.8192 16.0881 15.8192 15.4097C15.8192 14.7313 16.369 14.1807 17.0482 14.1807ZM7.62592 16.6387V19.916H10.9032V16.6387H7.62592ZM17.0482 19.916H22.7835C23.4627 19.916 24.0125 20.4666 24.0125 21.145C24.0125 21.8234 23.4627 22.374 22.7835 22.374H17.0482C16.369 22.374 15.8192 21.8234 15.8192 21.145C15.8192 20.4666 16.369 19.916 17.0482 19.916Z" fill="#CEF23F"/>
</svg>
