<svg width="28" height="30" viewBox="0 0 28 30" fill="none" xmlns="http://www.w3.org/2000/svg">
<path d="M25.3174 8.9647L14.568 0.494849C14.1558 0.171151 13.5758 0.171151 13.1636 0.494849L2.41423 8.9647C1.0491 10.0402 0.251953 11.6829 0.251953 13.4216V25.5883C0.251953 27.8859 2.11397 29.7479 4.41162 29.7479H23.3192C25.6169 29.7479 27.4789 27.8859 27.4789 25.5883V13.4201C27.4789 11.6821 26.6825 10.0402 25.3174 8.9647ZM22.1848 21.0504C22.1848 21.6767 21.6765 22.1849 21.0503 22.1849C20.4241 22.1849 19.9159 21.6767 19.9159 21.0504V22.563C19.9159 23.1893 19.4076 23.6975 18.7814 23.6975C18.1552 23.6975 17.6469 23.1893 17.6469 22.563V19.1597H10.0839V22.563C10.0839 23.1893 9.57567 23.6975 8.94945 23.6975C8.32323 23.6975 7.81499 23.1893 7.81499 22.563V21.0504C7.81499 21.6767 7.30676 22.1849 6.68054 22.1849C6.05432 22.1849 5.54608 21.6767 5.54608 21.0504V15C5.54608 14.3738 6.05432 13.8655 6.68054 13.8655C7.30676 13.8655 7.81499 14.3738 7.81499 15V13.4874C7.81499 12.8612 8.32323 12.3529 8.94945 12.3529C9.57567 12.3529 10.0839 12.8612 10.0839 13.4874V16.8908H17.6469V13.4874C17.6469 12.8612 18.1552 12.3529 18.7814 12.3529C19.4076 12.3529 19.9159 12.8612 19.9159 13.4874V15C19.9159 14.3738 20.4241 13.8655 21.0503 13.8655C21.6765 13.8655 22.1848 14.3738 22.1848 15V21.0504Z" fill="#CEF23F"/>
</svg>
