<svg width="33" height="30" viewBox="0 0 33 30" fill="none" xmlns="http://www.w3.org/2000/svg">
<path d="M8.49719 0.976807C6.92511 0.976807 5.3722 1.2273 3.88178 1.72293L1.70445 2.44686C1.21592 2.60946 0.914312 3.09782 0.987449 3.60764L1.69751 8.56421C1.77278 9.08752 2.22251 9.47675 2.75151 9.47675H5.94817V19.7921C5.94817 20.3793 6.42466 20.8558 7.01188 20.8558H12.3346V22.9873H14.4648V20.8558H19.0053C19.0302 20.8571 19.0552 20.8576 19.0802 20.8572H22.2158L21.7068 21.7489C21.6323 21.8705 21.5829 22.0058 21.5616 22.1469C21.5403 22.2879 21.5476 22.4318 21.583 22.57C21.6184 22.7082 21.6812 22.8379 21.7676 22.9513C21.8541 23.0648 21.9624 23.1597 22.0863 23.2305C22.2101 23.3013 22.3469 23.3465 22.4885 23.3634C22.6302 23.3803 22.7738 23.3686 22.9108 23.329C23.0478 23.2894 23.1755 23.2227 23.2862 23.1328C23.397 23.0429 23.4885 22.9316 23.5555 22.8057L24.9756 20.3204C25.0676 20.1595 25.1159 19.9774 25.1159 19.7921C25.1159 19.6067 25.0676 19.4246 24.9756 19.2637L23.5555 16.7785C23.4605 16.6066 23.3197 16.4643 23.1489 16.3674C22.9781 16.2705 22.7838 16.2227 22.5875 16.2293C22.4029 16.2356 22.2231 16.2899 22.0658 16.3868C21.9084 16.4836 21.779 16.6197 21.6902 16.7817C21.6014 16.9437 21.5562 17.1259 21.5591 17.3107C21.562 17.4954 21.6129 17.6761 21.7068 17.8352L22.2158 18.727H20.1453H18.0178C17.6259 18.727 17.3078 18.4089 17.3078 18.0169C17.3078 17.625 17.6259 17.3068 18.0178 17.3068H20.1453V9.47675H23.3433C23.8723 9.47675 24.3207 9.08752 24.3959 8.56421L24.4625 8.09684C26.9017 8.20038 29.0247 9.17098 29.996 9.69726L29.5175 13.0465H26.8908C26.3022 13.0465 25.8257 13.5236 25.8257 14.1116V24.4075H15.1776H14.4648H13.8684H10.228L10.7577 23.5449C10.8582 23.3864 10.9151 23.2043 10.9226 23.0168C10.93 22.8293 10.8879 22.6432 10.8003 22.4773C10.7128 22.3114 10.583 22.1715 10.424 22.0718C10.2651 21.9722 10.0826 21.9163 9.89512 21.9098C9.70428 21.9031 9.51514 21.9478 9.34753 22.0393C9.17991 22.1308 9.03997 22.2657 8.94236 22.4298L7.41684 24.9151C7.31382 25.0828 7.25929 25.2757 7.25929 25.4726C7.25929 25.6694 7.31382 25.8624 7.41684 26.0301L8.94236 28.5153C9.01556 28.6345 9.11153 28.7382 9.22479 28.8203C9.33804 28.9024 9.46637 28.9615 9.60244 28.994C9.73851 29.0265 9.87966 29.0319 10.0178 29.0099C10.156 28.9879 10.2885 28.9389 10.4077 28.8656C10.5269 28.7924 10.6305 28.6964 10.7126 28.5832C10.7947 28.4699 10.8537 28.3415 10.8862 28.2055C10.9187 28.0694 10.9241 27.9282 10.9021 27.7901C10.88 27.6519 10.831 27.5195 10.7577 27.4003L10.228 26.5377H13.8684H26.8908C27.4795 26.5377 27.9559 26.0605 27.9559 25.4726V15.1767H30.4412C30.9716 15.1767 31.4213 14.7875 31.4965 14.2627L32.2066 9.2923C32.2641 8.88685 32.0835 8.48216 31.742 8.25494C31.6089 8.16597 28.6096 6.19738 24.7676 5.96943L25.106 3.60764C25.177 3.09711 24.8754 2.60946 24.3876 2.44686L22.2103 1.72293C20.7191 1.22801 19.1662 0.976807 17.5949 0.976807H16.0458C15.5963 0.976807 15.1943 1.2588 15.0431 1.68271C14.7406 2.53052 13.9386 3.10006 13.046 3.10006C12.1535 3.10006 11.3507 2.53052 11.049 1.68271C10.8984 1.25809 10.4965 0.976807 10.0463 0.976807H8.49719Z" fill="#CEF23F"/>
</svg>
