<svg width="32" height="32" viewBox="0 0 32 32" fill="none" xmlns="http://www.w3.org/2000/svg">
<path d="M2.51516 1.46159C2.37755 1.45964 2.24093 1.48507 2.11323 1.53638C1.98554 1.5877 1.86931 1.66388 1.77131 1.7605C1.67331 1.85712 1.5955 1.97226 1.54238 2.09922C1.48927 2.22618 1.46191 2.36243 1.46191 2.50005C1.46191 2.63767 1.48927 2.77392 1.54238 2.90088C1.5955 3.02784 1.67331 3.14297 1.77131 3.2396C1.86931 3.33622 1.98554 3.4124 2.11323 3.46372C2.24093 3.51503 2.37755 3.54045 2.51516 3.53851H10.4767V10.4616H2.51516C2.37755 10.4596 2.24093 10.485 2.11323 10.5363C1.98554 10.5877 1.86931 10.6638 1.77131 10.7605C1.67331 10.8571 1.5955 10.9722 1.54238 11.0992C1.48927 11.2261 1.46191 11.3624 1.46191 11.5C1.46191 11.6376 1.48927 11.7739 1.54238 11.9008C1.5955 12.0278 1.67331 12.1429 1.77131 12.2396C1.86931 12.3362 1.98554 12.4124 2.11323 12.4637C2.24093 12.515 2.37755 12.5404 2.51516 12.5385H11.5151C11.7905 12.5384 12.0547 12.429 12.2494 12.2343C12.4441 12.0395 12.5536 11.7754 12.5536 11.5V8.38464H20.8612V15.8377C20.8442 15.9452 20.8442 16.0548 20.8612 16.1623V23.6154H12.5536V20.5C12.5536 20.2246 12.4441 19.9605 12.2494 19.7657C12.0547 19.571 11.7905 19.4615 11.5151 19.4615H2.51516C2.37755 19.4596 2.24093 19.485 2.11323 19.5363C1.98554 19.5876 1.86931 19.6638 1.77131 19.7604C1.67331 19.8571 1.5955 19.9722 1.54238 20.0991C1.48927 20.2261 1.46191 20.3624 1.46191 20.5C1.46191 20.6376 1.48927 20.7739 1.54238 20.9008C1.5955 21.0278 1.67331 21.1429 1.77131 21.2395C1.86931 21.3361 1.98554 21.4123 2.11323 21.4636C2.24093 21.515 2.37755 21.5404 2.51516 21.5384H10.4767V28.4615H2.51516C2.37755 28.4595 2.24093 28.485 2.11323 28.5363C1.98554 28.5876 1.86931 28.6638 1.77131 28.7604C1.67331 28.857 1.5955 28.9722 1.54238 29.0991C1.48927 29.2261 1.46191 29.3623 1.46191 29.4999C1.46191 29.6376 1.48927 29.7738 1.54238 29.9008C1.5955 30.0277 1.67331 30.1429 1.77131 30.2395C1.86931 30.3361 1.98554 30.4123 2.11323 30.4636C2.24093 30.5149 2.37755 30.5403 2.51516 30.5384H11.5151C11.7905 30.5384 12.0547 30.429 12.2494 30.2342C12.4441 30.0395 12.5536 29.7754 12.5536 29.4999V25.6923H21.8997C22.1751 25.6922 22.4392 25.5828 22.634 25.3881C22.8287 25.1933 22.9381 24.9292 22.9382 24.6538V17.0385H30.2074C30.345 17.0404 30.4816 17.015 30.6093 16.9637C30.737 16.9123 30.8532 16.8362 30.9512 16.7395C31.0492 16.6429 31.127 16.5278 31.1801 16.4008C31.2333 16.2739 31.2606 16.1376 31.2606 16C31.2606 15.8624 31.2333 15.7261 31.1801 15.5992C31.127 15.4722 31.0492 15.3571 30.9512 15.2604C30.8532 15.1638 30.737 15.0876 30.6093 15.0363C30.4816 14.985 30.345 14.9596 30.2074 14.9615H22.9382V7.34618C22.9381 7.07078 22.8287 6.80666 22.634 6.61191C22.4392 6.41717 22.1751 6.30775 21.8997 6.30773H12.5536V2.50005C12.5536 2.22464 12.4441 1.96052 12.2494 1.76578C12.0547 1.57104 11.7905 1.46162 11.5151 1.46159H2.51516Z" fill="#CEF23F" stroke="#CEF23F"/>
</svg>
